<?xml version="1.0" encoding="utf-8" standalone="no"?>
<!DOCTYPE svg PUBLIC "-//W3C//DTD SVG 1.1//EN"
  "http://www.w3.org/Graphics/SVG/1.1/DTD/svg11.dtd">
<!-- Created with matplotlib (https://matplotlib.org/) -->
<svg height="345.6pt" version="1.1" viewBox="0 0 460.8 345.6" width="460.8pt" xmlns="http://www.w3.org/2000/svg" xmlns:xlink="http://www.w3.org/1999/xlink">
 <defs>
  <style type="text/css">
*{stroke-linecap:butt;stroke-linejoin:round;}
  </style>
 </defs>
 <g id="figure_1">
  <g id="patch_1">
   <path d="M 0 345.6 
L 460.8 345.6 
L 460.8 0 
L 0 0 
z
" style="fill:#ffffff;"/>
  </g>
  <g id="axes_1">
   <g id="patch_2">
    <path d="M 8.64 336.96 
L 452.16 336.96 
L 452.16 8.64 
L 8.64 8.64 
z
" style="fill:#ffffff;"/>
   </g>
   <g id="matplotlib.axis_1">
    <g id="xtick_1">
     <g id="line2d_1">
      <path clip-path="url(#p4a6fee154b)" d="M 38.4 336.96 
L 38.4 8.64 
" style="fill:none;stroke:#cccccc;stroke-linecap:round;stroke-width:2;"/>
     </g>
     <g id="text_1">
      <!-- −1.0 -->
      <defs>
       <path d="M 10.59375 35.5 
L 73.1875 35.5 
L 73.1875 27.203125 
L 10.59375 27.203125 
z
" id="DejaVuSans-8722"/>
       <path d="M 12.40625 8.296875 
L 28.515625 8.296875 
L 28.515625 63.921875 
L 10.984375 60.40625 
L 10.984375 69.390625 
L 28.421875 72.90625 
L 38.28125 72.90625 
L 38.28125 8.296875 
L 54.390625 8.296875 
L 54.390625 0 
L 12.40625 0 
z
" id="DejaVuSans-49"/>
       <path d="M 10.6875 12.40625 
L 21 12.40625 
L 21 0 
L 10.6875 0 
z
" id="DejaVuSans-46"/>
       <path d="M 31.78125 66.40625 
Q 24.171875 66.40625 20.328125 58.90625 
Q 16.5 51.421875 16.5 36.375 
Q 16.5 21.390625 20.328125 13.890625 
Q 24.171875 6.390625 31.78125 6.390625 
Q 39.453125 6.390625 43.28125 13.890625 
Q 47.125 21.390625 47.125 36.375 
Q 47.125 51.421875 43.28125 58.90625 
Q 39.453125 66.40625 31.78125 66.40625 
z
M 31.78125 74.21875 
Q 44.046875 74.21875 50.515625 64.515625 
Q 56.984375 54.828125 56.984375 36.375 
Q 56.984375 17.96875 50.515625 8.265625 
Q 44.046875 -1.421875 31.78125 -1.421875 
Q 19.53125 -1.421875 13.0625 8.265625 
Q 6.59375 17.96875 6.59375 36.375 
Q 6.59375 54.828125 13.0625 64.515625 
Q 19.53125 74.21875 31.78125 74.21875 
z
" id="DejaVuSans-48"/>
      </defs>
      <g style="fill:#262626;" transform="translate(11.688906 112.762874)scale(0.22 -0.22)">
       <use xlink:href="#DejaVuSans-8722"/>
       <use x="83.789062" xlink:href="#DejaVuSans-49"/>
       <use x="147.412109" xlink:href="#DejaVuSans-46"/>
       <use x="179.199219" xlink:href="#DejaVuSans-48"/>
      </g>
     </g>
    </g>
    <g id="xtick_2">
     <g id="line2d_2">
      <path clip-path="url(#p4a6fee154b)" d="M 134.4 336.96 
L 134.4 8.64 
" style="fill:none;stroke:#cccccc;stroke-linecap:round;stroke-width:2;"/>
     </g>
     <g id="text_2">
      <!-- −0.5 -->
      <defs>
       <path d="M 10.796875 72.90625 
L 49.515625 72.90625 
L 49.515625 64.59375 
L 19.828125 64.59375 
L 19.828125 46.734375 
Q 21.96875 47.46875 24.109375 47.828125 
Q 26.265625 48.1875 28.421875 48.1875 
Q 40.625 48.1875 47.75 41.5 
Q 54.890625 34.8125 54.890625 23.390625 
Q 54.890625 11.625 47.5625 5.09375 
Q 40.234375 -1.421875 26.90625 -1.421875 
Q 22.3125 -1.421875 17.546875 -0.640625 
Q 12.796875 0.140625 7.71875 1.703125 
L 7.71875 11.625 
Q 12.109375 9.234375 16.796875 8.0625 
Q 21.484375 6.890625 26.703125 6.890625 
Q 35.15625 6.890625 40.078125 11.328125 
Q 45.015625 15.765625 45.015625 23.390625 
Q 45.015625 31 40.078125 35.4375 
Q 35.15625 39.890625 26.703125 39.890625 
Q 22.75 39.890625 18.8125 39.015625 
Q 14.890625 38.140625 10.796875 36.28125 
z
" id="DejaVuSans-53"/>
      </defs>
      <g style="fill:#262626;" transform="translate(107.688906 112.762874)scale(0.22 -0.22)">
       <use xlink:href="#DejaVuSans-8722"/>
       <use x="83.789062" xlink:href="#DejaVuSans-48"/>
       <use x="147.412109" xlink:href="#DejaVuSans-46"/>
       <use x="179.199219" xlink:href="#DejaVuSans-53"/>
      </g>
     </g>
    </g>
    <g id="xtick_3">
     <g id="line2d_3">
      <path clip-path="url(#p4a6fee154b)" d="M 230.4 336.96 
L 230.4 8.64 
" style="fill:none;stroke:#cccccc;stroke-linecap:round;stroke-width:2;"/>
     </g>
     <g id="text_3">
      <!-- 0.0 -->
      <g style="fill:#262626;" transform="translate(212.906562 112.762874)scale(0.22 -0.22)">
       <use xlink:href="#DejaVuSans-48"/>
       <use x="63.623047" xlink:href="#DejaVuSans-46"/>
       <use x="95.410156" xlink:href="#DejaVuSans-48"/>
      </g>
     </g>
    </g>
    <g id="xtick_4">
     <g id="line2d_4">
      <path clip-path="url(#p4a6fee154b)" d="M 326.4 336.96 
L 326.4 8.64 
" style="fill:none;stroke:#cccccc;stroke-linecap:round;stroke-width:2;"/>
     </g>
     <g id="text_4">
      <!-- 0.5 -->
      <g style="fill:#262626;" transform="translate(308.906562 112.762874)scale(0.22 -0.22)">
       <use xlink:href="#DejaVuSans-48"/>
       <use x="63.623047" xlink:href="#DejaVuSans-46"/>
       <use x="95.410156" xlink:href="#DejaVuSans-53"/>
      </g>
     </g>
    </g>
    <g id="xtick_5">
     <g id="line2d_5">
      <path clip-path="url(#p4a6fee154b)" d="M 422.4 336.96 
L 422.4 8.64 
" style="fill:none;stroke:#cccccc;stroke-linecap:round;stroke-width:2;"/>
     </g>
     <g id="text_5">
      <!-- 1.0 -->
      <g style="fill:#262626;" transform="translate(404.906562 112.762874)scale(0.22 -0.22)">
       <use xlink:href="#DejaVuSans-49"/>
       <use x="63.623047" xlink:href="#DejaVuSans-46"/>
       <use x="95.410156" xlink:href="#DejaVuSans-48"/>
      </g>
     </g>
    </g>
   </g>
   <g id="matplotlib.axis_2">
    <g id="ytick_1">
     <g id="line2d_6">
      <path clip-path="url(#p4a6fee154b)" d="M 8.64 257.681897 
L 452.16 257.681897 
" style="fill:none;stroke:#cccccc;stroke-linecap:round;stroke-width:2;"/>
     </g>
     <g id="text_6">
      <!-- −4 -->
      <defs>
       <path d="M 37.796875 64.3125 
L 12.890625 25.390625 
L 37.796875 25.390625 
z
M 35.203125 72.90625 
L 47.609375 72.90625 
L 47.609375 25.390625 
L 58.015625 25.390625 
L 58.015625 17.1875 
L 47.609375 17.1875 
L 47.609375 0 
L 37.796875 0 
L 37.796875 17.1875 
L 4.890625 17.1875 
L 4.890625 26.703125 
z
" id="DejaVuSans-52"/>
      </defs>
      <g style="fill:#262626;" transform="translate(182.467187 266.040178)scale(0.22 -0.22)">
       <use xlink:href="#DejaVuSans-8722"/>
       <use x="83.789062" xlink:href="#DejaVuSans-52"/>
      </g>
     </g>
    </g>
    <g id="ytick_2">
     <g id="line2d_7">
      <path clip-path="url(#p4a6fee154b)" d="M 8.64 169.114104 
L 452.16 169.114104 
" style="fill:none;stroke:#cccccc;stroke-linecap:round;stroke-width:2;"/>
     </g>
     <g id="text_7">
      <!-- −2 -->
      <defs>
       <path d="M 19.1875 8.296875 
L 53.609375 8.296875 
L 53.609375 0 
L 7.328125 0 
L 7.328125 8.296875 
Q 12.9375 14.109375 22.625 23.890625 
Q 32.328125 33.6875 34.8125 36.53125 
Q 39.546875 41.84375 41.421875 45.53125 
Q 43.3125 49.21875 43.3125 52.78125 
Q 43.3125 58.59375 39.234375 62.25 
Q 35.15625 65.921875 28.609375 65.921875 
Q 23.96875 65.921875 18.8125 64.3125 
Q 13.671875 62.703125 7.8125 59.421875 
L 7.8125 69.390625 
Q 13.765625 71.78125 18.9375 73 
Q 24.125 74.21875 28.421875 74.21875 
Q 39.75 74.21875 46.484375 68.546875 
Q 53.21875 62.890625 53.21875 53.421875 
Q 53.21875 48.921875 51.53125 44.890625 
Q 49.859375 40.875 45.40625 35.40625 
Q 44.1875 33.984375 37.640625 27.21875 
Q 31.109375 20.453125 19.1875 8.296875 
z
" id="DejaVuSans-50"/>
      </defs>
      <g style="fill:#262626;" transform="translate(182.467187 177.472386)scale(0.22 -0.22)">
       <use xlink:href="#DejaVuSans-8722"/>
       <use x="83.789062" xlink:href="#DejaVuSans-50"/>
      </g>
     </g>
    </g>
    <g id="ytick_3">
     <g id="line2d_8">
      <path clip-path="url(#p4a6fee154b)" d="M 8.64 80.546312 
L 452.16 80.546312 
" style="fill:none;stroke:#cccccc;stroke-linecap:round;stroke-width:2;"/>
     </g>
     <g id="text_8">
      <!-- 0 -->
      <g style="fill:#262626;" transform="translate(200.9025 88.904593)scale(0.22 -0.22)">
       <use xlink:href="#DejaVuSans-48"/>
      </g>
     </g>
    </g>
   </g>
   <g id="PathCollection_1">
    <defs>
     <path d="M 0 6 
C 1.591219 6 3.117479 5.367802 4.242641 4.242641 
C 5.367802 3.117479 6 1.591219 6 0 
C 6 -1.591219 5.367802 -3.117479 4.242641 -4.242641 
C 3.117479 -5.367802 1.591219 -6 0 -6 
C -1.591219 -6 -3.117479 -5.367802 -4.242641 -4.242641 
C -5.367802 -3.117479 -6 -1.591219 -6 0 
C -6 1.591219 -5.367802 3.117479 -4.242641 4.242641 
C -3.117479 5.367802 -1.591219 6 0 6 
z
" id="mba5dcea91d" style="stroke:#4c72b0;stroke-width:2;"/>
    </defs>
    <g clip-path="url(#p4a6fee154b)">
     <use style="fill:#4c72b0;stroke:#4c72b0;stroke-width:2;" x="38.4" xlink:href="#mba5dcea91d" y="136.639247"/>
     <use style="fill:#4c72b0;stroke:#4c72b0;stroke-width:2;" x="81.066667" xlink:href="#mba5dcea91d" y="112.037083"/>
     <use style="fill:#4c72b0;stroke:#4c72b0;stroke-width:2;" x="123.733333" xlink:href="#mba5dcea91d" y="118.433645"/>
     <use style="fill:#4c72b0;stroke:#4c72b0;stroke-width:2;" x="166.4" xlink:href="#mba5dcea91d" y="83.498572"/>
     <use style="fill:#4c72b0;stroke:#4c72b0;stroke-width:2;" x="209.066667" xlink:href="#mba5dcea91d" y="75.133836"/>
     <use style="fill:#4c72b0;stroke:#4c72b0;stroke-width:2;" x="251.733333" xlink:href="#mba5dcea91d" y="68.24523"/>
     <use style="fill:#4c72b0;stroke:#4c72b0;stroke-width:2;" x="294.4" xlink:href="#mba5dcea91d" y="61.356623"/>
     <use style="fill:#4c72b0;stroke:#4c72b0;stroke-width:2;" x="337.066667" xlink:href="#mba5dcea91d" y="58.896407"/>
     <use style="fill:#4c72b0;stroke:#4c72b0;stroke-width:2;" x="379.733333" xlink:href="#mba5dcea91d" y="43.151022"/>
     <use style="fill:#4c72b0;stroke:#4c72b0;stroke-width:2;" x="422.4" xlink:href="#mba5dcea91d" y="28.881766"/>
    </g>
   </g>
   <g id="line2d_9">
    <path clip-path="url(#p4a6fee154b)" d="M 28.8 130.832018 
L 33.330337 129.658879 
L 37.860674 128.48574 
L 42.391011 127.312602 
L 46.921348 126.139463 
L 51.451685 124.966324 
L 55.982022 123.793185 
L 60.51236 122.620047 
L 65.042697 121.446908 
L 69.573034 120.273769 
L 74.103371 119.10063 
L 78.633708 117.927492 
L 83.164045 116.754353 
L 87.694382 115.581214 
L 92.224719 114.408075 
L 96.755056 113.234937 
L 101.285393 112.061798 
L 105.81573 110.888659 
L 110.346067 109.71552 
L 114.876404 108.542381 
L 119.406742 107.369243 
L 123.937079 106.196104 
L 128.467416 105.022965 
L 132.997753 103.849826 
L 137.52809 102.676688 
L 142.058427 101.503549 
L 146.588764 100.33041 
L 151.119101 99.157271 
L 155.649438 97.984133 
L 160.179775 96.810994 
L 164.710112 95.637855 
L 169.240449 94.464716 
L 173.770787 93.291578 
L 178.301124 92.118439 
L 182.831461 90.9453 
L 187.361798 89.772161 
L 191.892135 88.599022 
L 196.422472 87.425884 
L 200.952809 86.252745 
L 205.483146 85.079606 
L 210.013483 83.906467 
L 214.54382 82.733329 
L 219.074157 81.56019 
L 223.604494 80.387051 
L 228.134831 79.213912 
L 232.665169 78.040774 
L 237.195506 76.867635 
L 241.725843 75.694496 
L 246.25618 74.521357 
L 250.786517 73.348219 
L 255.316854 72.17508 
L 259.847191 71.001941 
L 264.377528 69.828802 
L 268.907865 68.655663 
L 273.438202 67.482525 
L 277.968539 66.309386 
L 282.498876 65.136247 
L 287.029213 63.963108 
L 291.559551 62.78997 
L 296.089888 61.616831 
L 300.620225 60.443692 
L 305.150562 59.270553 
L 309.680899 58.097415 
L 314.211236 56.924276 
L 318.741573 55.751137 
L 323.27191 54.577998 
L 327.802247 53.40486 
L 332.332584 52.231721 
L 336.862921 51.058582 
L 341.393258 49.885443 
L 345.923596 48.712304 
L 350.453933 47.539166 
L 354.98427 46.366027 
L 359.514607 45.192888 
L 364.044944 44.019749 
L 368.575281 42.846611 
L 373.105618 41.673472 
L 377.635955 40.500333 
L 382.166292 39.327194 
L 386.696629 38.154056 
L 391.226966 36.980917 
L 395.757303 35.807778 
L 400.28764 34.634639 
L 404.817978 33.461501 
L 409.348315 32.288362 
L 413.878652 31.115223 
L 418.408989 29.942084 
L 422.939326 28.768945 
L 427.469663 27.595807 
L 432 26.422668 
" style="fill:none;stroke:#4c72b0;stroke-linecap:round;stroke-width:3;"/>
   </g>
   <g id="line2d_10">
    <path clip-path="url(#p4a6fee154b)" d="M 28.8 322.036364 
L 33.330337 214.810994 
L 37.860674 143.216871 
L 42.391011 98.54327 
L 46.921348 73.725692 
L 51.451685 63.100373 
L 55.982022 62.187594 
L 60.51236 67.50118 
L 65.042697 76.381779 
L 69.573034 86.851664 
L 74.103371 97.488936 
L 78.633708 107.319194 
L 83.164045 115.722844 
L 87.694382 122.356375 
L 92.224719 127.086054 
L 96.755056 129.932603 
L 101.285393 131.025558 
L 105.81573 130.566109 
L 110.346067 128.797308 
L 114.876404 125.980665 
L 119.406742 122.378218 
L 123.937079 118.239255 
L 128.467416 113.790958 
L 132.997753 109.232299 
L 137.52809 104.730617 
L 142.058427 100.420333 
L 146.588764 96.403361 
L 151.119101 92.75081 
L 155.649438 89.505622 
L 160.179775 86.685865 
L 164.710112 84.288403 
L 169.240449 82.292758 
L 173.770787 80.664976 
L 178.301124 79.361351 
L 182.831461 78.331923 
L 187.361798 77.523634 
L 191.892135 76.883113 
L 196.422472 76.359043 
L 200.952809 75.904086 
L 205.483146 75.476378 
L 210.013483 75.040592 
L 214.54382 74.568601 
L 219.074157 74.039767 
L 223.604494 73.440893 
L 228.134831 72.765892 
L 232.665169 72.0152 
L 237.195506 71.194996 
L 241.725843 70.316274 
L 246.25618 69.393811 
L 250.786517 68.445074 
L 255.316854 67.489113 
L 259.847191 66.545478 
L 264.377528 65.633185 
L 268.907865 64.769769 
L 273.438202 63.970445 
L 277.968539 63.247387 
L 282.498876 62.609154 
L 287.029213 62.060242 
L 291.559551 61.600803 
L 296.089888 61.226487 
L 300.620225 60.928431 
L 305.150562 60.693371 
L 309.680899 60.503868 
L 314.211236 60.338637 
L 318.741573 60.17296 
L 323.27191 59.97918 
L 327.802247 59.727257 
L 332.332584 59.385393 
L 336.862921 58.920723 
L 341.393258 58.300075 
L 345.923596 57.490842 
L 350.453933 56.461979 
L 354.98427 55.185186 
L 359.514607 53.636346 
L 364.044944 51.797305 
L 368.575281 49.658108 
L 373.105618 47.219828 
L 377.635955 44.498169 
L 382.166292 41.528031 
L 386.696629 38.369295 
L 391.226966 35.1141 
L 395.757303 31.895941 
L 400.28764 28.900964 
L 404.817978 26.381891 
L 409.348315 24.675055 
L 413.878652 24.221097 
L 418.408989 25.589939 
L 422.939326 29.510719 
L 427.469663 36.907446 
L 432 48.941224 
" style="fill:none;stroke:#dd8452;stroke-linecap:round;stroke-width:3;"/>
   </g>
   <g id="patch_3">
    <path d="M 230.4 336.96 
L 230.4 8.64 
" style="fill:none;stroke:#cccccc;stroke-linecap:square;stroke-linejoin:miter;stroke-width:2.5;"/>
   </g>
   <g id="patch_4">
    <path d="M 452.16 336.96 
L 452.16 8.64 
" style="fill:none;stroke:#ffffff;stroke-linecap:square;stroke-linejoin:miter;stroke-width:2.5;"/>
   </g>
   <g id="patch_5">
    <path d="M 8.64 80.546312 
L 452.16 80.546312 
" style="fill:none;stroke:#808080;stroke-linecap:square;stroke-linejoin:miter;stroke-width:2.5;"/>
   </g>
   <g id="patch_6">
    <path d="M 8.64 8.64 
L 452.16 8.64 
" style="fill:none;stroke:#ffffff;stroke-linecap:square;stroke-linejoin:miter;stroke-width:2.5;"/>
   </g>
  </g>
 </g>
 <defs>
  <clipPath id="p4a6fee154b">
   <rect height="328.32" width="443.52" x="8.64" y="8.64"/>
  </clipPath>
 </defs>
</svg>
